<svg className=' w-full h-full' fill='#67e8f9' viewBox="0 0 12 12" xmlns="http://www.w3.org/2000/svg">
  <path d="M10.4459 5.49943C10.0536 5.49943 9.73495 5.75656 9.62463 6.11164H8.84014C8.79111 5.45045 8.52144 4.85049 8.11693 4.37298L8.66853 3.82199C8.7911 3.88321 8.92594 3.91994 9.07303 3.91994C9.30593 3.91994 9.51431 3.83424 9.67366 3.66282C9.83301 3.50365 9.93107 3.28325 9.93107 3.06286C9.93107 2.83022 9.84526 2.62207 9.67366 2.4629C9.51431 2.30373 9.29367 2.20577 9.07303 2.20577C8.85239 2.20577 8.63175 2.29148 8.47241 2.45065C8.31306 2.60983 8.21499 2.83022 8.21499 3.06286C8.21499 3.20979 8.25177 3.34447 8.31306 3.46691L7.77372 4.03014C7.29567 3.62609 6.69504 3.35672 6.03313 3.30774V2.52412C6.3886 2.41392 6.64601 2.09558 6.64601 1.70377C6.64601 1.22625 6.26602 0.84668 5.78798 0.84668C5.30993 0.84668 4.92994 1.22625 4.92994 1.70377C4.92994 2.09558 5.18735 2.41392 5.54282 2.52412V3.30774C4.88091 3.35672 4.28028 3.62609 3.80223 4.03014L3.25064 3.47916C3.31193 3.35672 3.3487 3.22203 3.3487 3.0751C3.3487 2.84247 3.2629 2.63432 3.09129 2.47514C2.93194 2.31597 2.7113 2.21802 2.49066 2.21802C2.27002 2.21802 2.04939 2.30373 1.89004 2.47514C1.73069 2.63432 1.63262 2.85471 1.63262 3.0751C1.63262 3.2955 1.71843 3.51589 1.89004 3.67506C2.04939 3.83424 2.27002 3.93219 2.49066 3.93219C2.63775 3.93219 2.77259 3.89546 2.89516 3.83424L3.44676 4.38522C3.04226 4.86274 2.77259 5.4627 2.72356 6.12388H1.93907C1.82875 5.7688 1.51005 5.51167 1.1178 5.51167C0.639753 5.51167 0.259766 5.89124 0.259766 6.36876C0.259766 6.84628 0.639753 7.22585 1.1178 7.22585C1.51005 7.22585 1.82875 6.96872 1.93907 6.61364H2.72356C2.77259 7.27482 3.04226 7.87478 3.44676 8.3523L2.89516 8.90329C2.77259 8.84207 2.63775 8.80533 2.49066 8.80533C2.25777 8.80533 2.04939 8.89104 1.89004 9.06246C1.73069 9.22163 1.63262 9.44203 1.63262 9.66242C1.63262 9.88281 1.71843 10.1032 1.87778 10.2624C2.03713 10.4216 2.25777 10.5195 2.49066 10.5195C2.72356 10.5195 2.93194 10.4338 3.09129 10.2624C3.25064 10.1032 3.3487 9.88281 3.3487 9.66242C3.3487 9.51549 3.31193 9.3808 3.25064 9.25836L3.80223 8.70738C4.28028 9.11143 4.88091 9.38081 5.54282 9.42978V10.2134C5.18735 10.3236 4.92994 10.6419 4.92994 11.0338C4.92994 11.5113 5.30993 11.8908 5.78798 11.8908C6.26602 11.8908 6.64601 11.5113 6.64601 11.0338C6.64601 10.6419 6.3886 10.3236 6.03313 10.2134V9.42978C6.69504 9.38081 7.29567 9.11143 7.77372 8.70738L8.32531 9.25836C8.26402 9.3808 8.22725 9.51549 8.22725 9.66242C8.22725 9.89506 8.31306 10.1032 8.47241 10.2624C8.63175 10.4216 8.85239 10.5073 9.07303 10.5073C9.30593 10.5073 9.51431 10.4216 9.67366 10.2624C9.83301 10.1032 9.93107 9.88281 9.93107 9.65018C9.93107 9.41754 9.84527 9.20939 9.68592 9.05021C9.52657 8.89104 9.30593 8.79309 9.07303 8.79309C8.92594 8.79309 8.7911 8.82982 8.66853 8.89104L8.11693 8.34006C8.52144 7.86254 8.79111 7.26258 8.84014 6.6014H9.62463C9.73495 6.95648 10.0536 7.2136 10.4459 7.2136C10.9239 7.2136 11.3039 6.83404 11.3039 6.35652C11.3039 5.879 10.9239 5.49943 10.4459 5.49943ZM8.81562 2.80573C8.88917 2.73227 8.97497 2.69554 9.07303 2.69554C9.17109 2.69554 9.26915 2.73227 9.33044 2.80573C9.40399 2.8792 9.44076 2.96491 9.44076 3.06286C9.44076 3.16081 9.40399 3.25876 9.33044 3.31998C9.19561 3.45467 8.95045 3.45467 8.81562 3.31998C8.74207 3.24652 8.7053 3.16081 8.7053 3.06286C8.7053 2.96491 8.75433 2.8792 8.81562 2.80573ZM5.42025 1.70377C5.42025 1.49562 5.5796 1.33644 5.78798 1.33644C5.99636 1.33644 6.15571 1.49562 6.15571 1.70377C6.15571 1.91191 5.99636 2.07109 5.78798 2.07109C5.5796 2.07109 5.42025 1.91191 5.42025 1.70377ZM2.23325 3.33223C2.1597 3.25876 2.12293 3.17306 2.12293 3.0751C2.12293 2.97715 2.1597 2.8792 2.23325 2.81798C2.3068 2.74451 2.3926 2.70778 2.49066 2.70778C2.58872 2.70778 2.68678 2.74451 2.74807 2.81798C2.82162 2.89144 2.85839 2.97715 2.85839 3.0751C2.85839 3.17306 2.82162 3.27101 2.74807 3.33223C2.61324 3.46691 2.36809 3.46691 2.23325 3.33223ZM1.13006 6.72384C0.92168 6.72384 0.76233 6.56467 0.76233 6.35652C0.76233 6.14837 0.92168 5.98919 1.13006 5.98919C1.33844 5.98919 1.49779 6.14837 1.49779 6.35652C1.49779 6.56467 1.33844 6.72384 1.13006 6.72384ZM2.76033 9.9073C2.6255 10.042 2.38034 10.042 2.24551 9.9073C2.17196 9.83384 2.13519 9.74813 2.13519 9.65018C2.13519 9.55222 2.17196 9.45427 2.24551 9.39305C2.31905 9.31959 2.40486 9.28285 2.50292 9.28285C2.60098 9.28285 2.69904 9.31959 2.76033 9.39305C2.83388 9.46651 2.87065 9.55222 2.87065 9.65018C2.87065 9.74813 2.82162 9.83384 2.76033 9.9073ZM6.15571 11.0093C6.15571 11.2174 5.99636 11.3766 5.78798 11.3766C5.5796 11.3766 5.42025 11.2174 5.42025 11.0093C5.42025 10.8011 5.5796 10.6419 5.78798 10.6419C5.99636 10.6419 6.15571 10.8011 6.15571 11.0093ZM9.3427 9.39305C9.41625 9.46651 9.45302 9.55222 9.45302 9.65018C9.45302 9.74813 9.41625 9.83384 9.3427 9.9073C9.20787 10.042 8.96271 10.042 8.82788 9.9073C8.75433 9.83384 8.71756 9.74813 8.71756 9.65018C8.71756 9.55222 8.75433 9.45427 8.82788 9.39305C8.90142 9.31959 8.98723 9.28285 9.08529 9.28285C9.18335 9.28285 9.26915 9.31959 9.3427 9.39305ZM5.78798 8.92777C4.36609 8.92777 3.21386 7.77683 3.21386 6.35652C3.21386 4.9362 4.36609 3.78526 5.78798 3.78526C7.20987 3.78526 8.36209 4.9362 8.36209 6.35652C8.36209 7.77683 7.20987 8.92777 5.78798 8.92777ZM10.4459 6.72384C10.2375 6.72384 10.0782 6.56467 10.0782 6.35652C10.0782 6.14837 10.2375 5.98919 10.4459 5.98919C10.6543 5.98919 10.8136 6.14837 10.8136 6.35652C10.8136 6.56467 10.6543 6.72384 10.4459 6.72384ZM5.99636 4.87498C5.94732 4.80152 5.87378 4.76479 5.78798 4.76479C5.70217 4.76479 5.62863 4.81376 5.57959 4.87498L4.78285 6.13612C4.48866 6.6014 4.56221 7.20136 4.95445 7.59317C5.17509 7.82581 5.46928 7.94825 5.78798 7.94825C6.10667 7.94825 6.40086 7.82581 6.6215 7.60541C7.01374 7.2136 7.07503 6.61364 6.7931 6.14837L5.99636 4.87498ZM6.27828 7.26258C6.14345 7.39726 5.97184 7.45848 5.78798 7.45848C5.60411 7.45848 5.4325 7.38502 5.29767 7.26258C5.06477 7.02994 5.028 6.68711 5.19961 6.40549L5.78798 5.47494L6.37634 6.40549C6.54795 6.67486 6.49892 7.02994 6.27828 7.26258Z" />
</svg>