<svg className=' w-full h-full' fill='#3b82f6' viewBox="0 0 14 14" xmlns="http://www.w3.org/2000/svg">
  <g clip-path="url(#clip0_2426_2498)">
    <path d="M11.7614 4.06152C10.7597 4.06152 9.94512 4.87634 9.94512 5.87785C9.94512 6.12862 10.1482 6.33193 10.3992 6.33193C10.6502 6.33193 10.8533 6.12862 10.8533 5.87785C10.8533 5.37697 11.2608 4.96969 11.7614 4.96969C12.2621 4.96969 12.6696 5.37697 12.6696 5.87785C12.6696 6.37873 12.2621 6.78601 11.7614 6.78601H1.3535C1.1025 6.78601 0.899414 6.98933 0.899414 7.2401C0.899414 7.49086 1.1025 7.69418 1.3535 7.69418H11.7614C12.7632 7.69418 13.5778 6.87936 13.5778 5.87785C13.5778 4.87634 12.7632 4.06152 11.7614 4.06152Z" />
    <path d="M1.31736 5.87777H7.22042C8.22216 5.87777 9.03675 5.06295 9.03675 4.06144C9.03675 3.05994 8.22216 2.24512 7.22042 2.24512C6.21869 2.24512 5.4041 3.05994 5.4041 4.06144C5.4041 4.31221 5.60719 4.51553 5.85818 4.51553C6.10917 4.51553 6.31226 4.31221 6.31226 4.06144C6.31226 3.56056 6.71977 3.15328 7.22042 3.15328C7.72108 3.15328 8.12859 3.56056 8.12859 4.06144C8.12859 4.56232 7.72108 4.96961 7.22042 4.96961H1.31736C1.06637 4.96961 0.863281 5.17292 0.863281 5.42369C0.863281 5.67446 1.06637 5.87777 1.31736 5.87777Z" />
    <path d="M7.22042 8.60254H1.31736C1.06637 8.60254 0.863281 8.80585 0.863281 9.05662C0.863281 9.30739 1.06637 9.5107 1.31736 9.5107H7.22042C7.72108 9.5107 8.12859 9.91799 8.12859 10.4189C8.12859 10.9197 7.72108 11.327 7.22042 11.327C6.71977 11.327 6.31226 10.9197 6.31226 10.4189C6.31226 10.1681 6.10917 9.96478 5.85818 9.96478C5.60719 9.96478 5.4041 10.1681 5.4041 10.4189C5.4041 11.4204 6.21869 12.2352 7.22042 12.2352C8.22216 12.2352 9.03675 11.4204 9.03675 10.4189C9.03675 9.41736 8.22216 8.60254 7.22042 8.60254Z" />
  </g>
  <defs>
    <clipPath id="clip0_2426_2498">
      <rect width="12.7143" height="12.7143" transform="translate(0.863281 0.882812)" />
    </clipPath>
  </defs>
</svg>