<svg className=' w-full h-full' fill='#c2410c' viewBox="0 0 11 11" xmlns="http://www.w3.org/2000/svg">
  <g clip-path="url(#clip0_2426_806)">
    <path d="M6.1065 6.18936V1.92642C6.1065 1.19094 5.51029 0.594727 4.77481 0.594727C4.03932 0.594727 3.44311 1.19094 3.44311 1.92642V6.18747C2.29207 6.92184 1.95428 8.45029 2.68865 9.60132C3.14185 10.3116 3.9256 10.7422 4.76818 10.7438L4.78143 10.7457C6.1468 10.7432 7.25155 9.63424 7.249 8.26889C7.24741 7.42631 6.81681 6.64256 6.1065 6.18936ZM3.73463 10.0877C2.73235 9.50902 2.38897 8.22741 2.96762 7.22516C3.15155 6.9066 3.41606 6.64209 3.73463 6.45816C3.79343 6.42421 3.82953 6.36136 3.82927 6.29347V1.92642C3.82927 1.40004 4.25599 0.973318 4.78238 0.973318C5.30876 0.973318 5.73548 1.40004 5.73548 1.92642V6.29347C5.73522 6.36136 5.77133 6.42421 5.83013 6.45816C6.8324 7.03682 7.17579 8.31842 6.59713 9.32067C6.01848 10.3229 4.73688 10.6663 3.73463 10.0877Z" />
    <path d="M4.96937 6.91296V4.04135C4.96937 3.93681 4.88462 3.85205 4.78008 3.85205C4.67554 3.85205 4.59078 3.93681 4.59078 4.04135V6.91296C3.87569 7.01551 3.37912 7.67833 3.48168 8.39342C3.57424 9.03887 4.12803 9.51758 4.78008 9.51578C5.50248 9.51777 6.08972 8.93377 6.09173 8.21137C6.09353 7.55931 5.61483 7.00553 4.96937 6.91296ZM4.78008 9.13529C4.26676 9.13529 3.85064 8.71918 3.85064 8.20585C3.85168 7.69298 4.26718 7.27745 4.78008 7.27641C5.2934 7.27641 5.70952 7.69253 5.70952 8.20585C5.70952 8.71918 5.29338 9.13529 4.78008 9.13529Z" />
    <path d="M7.95198 1.89648H6.76889C6.66435 1.89648 6.57959 1.98124 6.57959 2.08578C6.57959 2.19032 6.66435 2.27508 6.76889 2.27508H7.95198C8.05652 2.27508 8.14128 2.19032 8.14128 2.08578C8.14128 1.98124 8.05652 1.89648 7.95198 1.89648Z" />
    <path d="M7.70139 2.84277H7.00668C6.90214 2.84277 6.81738 2.92753 6.81738 3.03207C6.81738 3.13661 6.90214 3.22136 7.00668 3.22136H7.70139C7.80593 3.22136 7.89069 3.13661 7.89069 3.03207C7.89069 2.92753 7.80593 2.84277 7.70139 2.84277Z" />
    <path d="M7.95198 3.78955H6.76889C6.66435 3.78955 6.57959 3.87431 6.57959 3.97885C6.57959 4.08339 6.66435 4.16814 6.76889 4.16814H7.95198C8.05652 4.16814 8.14128 4.08339 8.14128 3.97885C8.14128 3.87431 8.05652 3.78955 7.95198 3.78955Z" />
    <path d="M7.70139 4.73584H7.00668C6.90214 4.73584 6.81738 4.8206 6.81738 4.92514C6.81738 5.02967 6.90214 5.11443 7.00668 5.11443H7.70139C7.80593 5.11443 7.89069 5.02967 7.89069 4.92514C7.89069 4.8206 7.80593 4.73584 7.70139 4.73584Z" />
    <path d="M7.95198 5.68262H6.76889C6.66435 5.68262 6.57959 5.76737 6.57959 5.87191C6.57959 5.97645 6.66435 6.06121 6.76889 6.06121H7.95198C8.05652 6.06121 8.14128 5.97645 8.14128 5.87191C8.14128 5.76737 8.05652 5.68262 7.95198 5.68262Z" />
  </g>
  <defs>
    <clipPath id="clip0_2426_806">
      <rect width="10.151" height="10.151" transform="translate(0.14502 0.594727)" />
    </clipPath>
  </defs>
</svg>