<svg xmlns="http://www.w3.org/2000/svg" viewBox="0 0 254.78 88.05"><defs><style>.afba5bdd-e470-4466-bce5-0d715e0630d3{fill:#d0cfcd;}.f5d415fe-f0be-4e3c-a371-471b885fdca5{fill:#1ecad3;}.a2593ce0-4fd2-4261-8560-71bbc92c2aef{fill:#93d500;}.b7037a75-b468-44e3-9e03-68098e9cbd42{fill:#f4b223;}.b3ff66f3-3d77-402a-8262-b7c5f44b817e{fill:#cf63ce;}.b7d54d86-ae28-4407-b718-d70a99cbbf9c{fill:#a7a8a9;}</style></defs><g id="f1cf81c9-7108-4c30-b2df-5074970829f2" data-name="Layer 2"><g id="ac7105e2-9307-4843-a24d-ed854dc1977e" data-name="Layer 2"><polygon class="afba5bdd-e470-4466-bce5-0d715e0630d3" points="206.84 3.24 180.12 66.45 199.16 66.45 216.36 25.76 206.84 3.24"/><path class="afba5bdd-e470-4466-bce5-0d715e0630d3" d="M0,56.75l10.08-12c6.44,5.13,13.63,7.84,21.19,7.84,4.85,0,7.46-1.68,7.46-4.48v-.19c0-2.71-2.14-4.2-11-6.25C13.81,38.45,3.08,34.53,3.08,21.09v-.18C3.08,8.77,12.69,0,28.37,0,39.48,0,48.16,3,55.25,8.68l-9,12.79c-6-4.2-12.51-6.44-18.29-6.44-4.39,0-6.54,1.86-6.54,4.2v.18c0,3,2.24,4.3,11.3,6.35C47.69,29,57,33.88,57,46.11v.18c0,13.35-10.54,21.28-26.41,21.28C19,67.57,8,63.93,0,56.75Z"/><path class="afba5bdd-e470-4466-bce5-0d715e0630d3" d="M63.38,1.12h52.55v15.4H81.3v9.89h31.36V40.69H81.3V51.05h35.1v15.4h-53Z"/><path class="afba5bdd-e470-4466-bce5-0d715e0630d3" d="M122.72,1.12h25.2c23.33,0,36.86,13.44,36.86,32.29v.19c0,18.85-13.72,32.85-37.24,32.85H122.72ZM148.2,50.4c10.82,0,18-6,18-16.52v-.19c0-10.45-7.19-16.52-18-16.52h-7.38V50.4Z"/><path class="afba5bdd-e470-4466-bce5-0d715e0630d3" d="M3.18,76.8H6.92c2.18,0,3.5,1.3,3.5,3.17v0c0,2.12-1.65,3.22-3.7,3.22H5.19V86h-2Zm3.61,4.62A1.42,1.42,0,0,0,8.38,80v0c0-.9-.63-1.39-1.63-1.39H5.19v2.8Z"/><path class="afba5bdd-e470-4466-bce5-0d715e0630d3" d="M11.7,76.41h2v3.53a2.47,2.47,0,0,1,2.05-1.12,2.3,2.3,0,0,1,2.38,2.6V86h-2V82.05c0-.94-.44-1.43-1.2-1.43s-1.24.49-1.24,1.43V86h-2Z"/><path class="afba5bdd-e470-4466-bce5-0d715e0630d3" d="M19.43,83.94v0c0-1.53,1.16-2.24,2.82-2.24A4.91,4.91,0,0,1,24,82v-.12c0-.82-.51-1.28-1.5-1.28a5.08,5.08,0,0,0-1.94.38L20,79.43a6.18,6.18,0,0,1,2.72-.56,3.24,3.24,0,0,1,2.36.78,3,3,0,0,1,.76,2.24V86H24V85.2a2.71,2.71,0,0,1-2.12.89A2.17,2.17,0,0,1,19.43,83.94ZM24,83.49v-.36a3.22,3.22,0,0,0-1.27-.26c-.85,0-1.37.34-1.37,1v0c0,.54.44.85,1.08.85C23.36,84.71,24,84.2,24,83.49Z"/><path class="afba5bdd-e470-4466-bce5-0d715e0630d3" d="M27.58,79h2v1.41a2.17,2.17,0,0,1,2.24-1.54V80.9H31.7c-1.32,0-2.13.79-2.13,2.47V86h-2Z"/><path class="afba5bdd-e470-4466-bce5-0d715e0630d3" d="M33.05,79h2v1a2.5,2.5,0,0,1,2.07-1.12,2.08,2.08,0,0,1,2,1.11,2.89,2.89,0,0,1,2.3-1.11c1.48,0,2.37.89,2.37,2.57V86h-2V82.05c0-.94-.42-1.43-1.16-1.43s-1.2.49-1.2,1.43V86h-2V82.05c0-.94-.42-1.43-1.16-1.43S35,81.11,35,82.05V86h-2Z"/><path class="afba5bdd-e470-4466-bce5-0d715e0630d3" d="M45.05,83.94v0c0-1.53,1.16-2.24,2.82-2.24a4.91,4.91,0,0,1,1.71.29v-.12c0-.82-.51-1.28-1.5-1.28a5.08,5.08,0,0,0-1.94.38l-.49-1.52a6.18,6.18,0,0,1,2.72-.56,3.24,3.24,0,0,1,2.36.78,3,3,0,0,1,.76,2.24V86H49.57V85.2a2.71,2.71,0,0,1-2.12.89A2.17,2.17,0,0,1,45.05,83.94Zm4.56-.45v-.36a3.22,3.22,0,0,0-1.27-.26c-.85,0-1.37.34-1.37,1v0c0,.54.44.85,1.08.85C49,84.71,49.61,84.2,49.61,83.49Z"/><path class="afba5bdd-e470-4466-bce5-0d715e0630d3" d="M52.86,82.49v0a3.6,3.6,0,0,1,3.68-3.65A3.43,3.43,0,0,1,59.33,80L58.12,81.3a2.06,2.06,0,0,0-1.6-.77,1.8,1.8,0,0,0-1.7,1.91v0A1.8,1.8,0,0,0,56.6,84.4a2.24,2.24,0,0,0,1.61-.74l1.16,1.17a3.51,3.51,0,0,1-2.86,1.28A3.58,3.58,0,0,1,52.86,82.49Z"/><path class="afba5bdd-e470-4466-bce5-0d715e0630d3" d="M60.13,82.49v0a3.49,3.49,0,0,1,3.46-3.65c2.34,0,3.42,1.82,3.42,3.8,0,.16,0,.34,0,.53H62.1a1.63,1.63,0,0,0,1.72,1.37,2.31,2.31,0,0,0,1.7-.72l1.13,1a3.7,3.7,0,0,1-6.52-2.32Zm4.94-.59a1.5,1.5,0,0,0-1.48-1.49c-.82,0-1.35.59-1.51,1.49Z"/><path class="afba5bdd-e470-4466-bce5-0d715e0630d3" d="M68.43,83.49V79h2v3.91c0,.94.44,1.42,1.2,1.42s1.24-.48,1.24-1.42V79h2v7h-2V85a2.47,2.47,0,0,1-2,1.13A2.3,2.3,0,0,1,68.43,83.49Z"/><path class="afba5bdd-e470-4466-bce5-0d715e0630d3" d="M77,84V80.65h-.83V79H77V77.16h2V79h1.65v1.7H78.94v3c0,.46.2.68.64.68a2,2,0,0,0,1-.25v1.6a2.92,2.92,0,0,1-1.57.4C77.78,86.07,77,85.59,77,84Z"/><path class="afba5bdd-e470-4466-bce5-0d715e0630d3" d="M82.09,76.41h2.09v1.77H82.09Zm0,2.54h2v7h-2Z"/><path class="afba5bdd-e470-4466-bce5-0d715e0630d3" d="M85.66,82.49v0a3.6,3.6,0,0,1,3.67-3.65A3.45,3.45,0,0,1,92.13,80L90.91,81.3a2,2,0,0,0-1.59-.77,1.8,1.8,0,0,0-1.7,1.91v0A1.79,1.79,0,0,0,89.4,84.4,2.27,2.27,0,0,0,91,83.66l1.16,1.17a3.52,3.52,0,0,1-2.86,1.28A3.58,3.58,0,0,1,85.66,82.49Z"/><path class="afba5bdd-e470-4466-bce5-0d715e0630d3" d="M93,83.94v0c0-1.53,1.17-2.24,2.83-2.24a5,5,0,0,1,1.71.29v-.12c0-.82-.51-1.28-1.5-1.28a5.08,5.08,0,0,0-1.94.38l-.49-1.52a6.13,6.13,0,0,1,2.71-.56,3.27,3.27,0,0,1,2.37.78,3.09,3.09,0,0,1,.76,2.24V86H97.57V85.2a2.72,2.72,0,0,1-2.12.89A2.17,2.17,0,0,1,93,83.94Zm4.57-.45v-.36a3.22,3.22,0,0,0-1.27-.26c-.85,0-1.37.34-1.37,1v0c0,.54.44.85,1.08.85C97,84.71,97.61,84.2,97.61,83.49Z"/><path class="afba5bdd-e470-4466-bce5-0d715e0630d3" d="M101.29,76.41h2V86h-2Z"/><path class="afba5bdd-e470-4466-bce5-0d715e0630d3" d="M109.28,76.8h3.57a4.57,4.57,0,0,1,4.86,4.55v0A4.58,4.58,0,0,1,112.85,86h-3.57Zm3.57,7.34a2.61,2.61,0,0,0,2.76-2.73v0a2.64,2.64,0,0,0-2.76-2.76h-1.56v5.52Z"/><path class="afba5bdd-e470-4466-bce5-0d715e0630d3" d="M118.69,82.49v0a3.49,3.49,0,0,1,3.46-3.65c2.34,0,3.42,1.82,3.42,3.8,0,.16,0,.34,0,.53h-4.88a1.63,1.63,0,0,0,1.72,1.37,2.31,2.31,0,0,0,1.7-.72l1.13,1a3.7,3.7,0,0,1-6.52-2.32Zm4.94-.59a1.5,1.5,0,0,0-1.48-1.49,1.56,1.56,0,0,0-1.51,1.49Z"/><path class="afba5bdd-e470-4466-bce5-0d715e0630d3" d="M126.09,79h2.1l1.57,4.69L131.34,79h2.07L130.65,86h-1.8Z"/><path class="afba5bdd-e470-4466-bce5-0d715e0630d3" d="M133.83,82.49v0a3.49,3.49,0,0,1,3.46-3.65c2.34,0,3.41,1.82,3.41,3.8,0,.16,0,.34,0,.53H135.8a1.62,1.62,0,0,0,1.71,1.37,2.29,2.29,0,0,0,1.7-.72l1.14,1a3.7,3.7,0,0,1-6.52-2.32Zm4.94-.59a1.5,1.5,0,0,0-1.48-1.49,1.57,1.57,0,0,0-1.52,1.49Z"/><path class="afba5bdd-e470-4466-bce5-0d715e0630d3" d="M142.27,76.41h2V86h-2Z"/><path class="afba5bdd-e470-4466-bce5-0d715e0630d3" d="M145.79,82.49v0a3.79,3.79,0,0,1,7.58,0v0a3.67,3.67,0,0,1-3.81,3.64A3.63,3.63,0,0,1,145.79,82.49Zm5.62,0v0a1.87,1.87,0,0,0-1.85-1.94,1.8,1.8,0,0,0-1.81,1.91v0a1.86,1.86,0,0,0,1.84,1.93A1.8,1.8,0,0,0,151.41,82.49Z"/><path class="afba5bdd-e470-4466-bce5-0d715e0630d3" d="M154.8,79h2v1A2.57,2.57,0,0,1,159,78.82a3.3,3.3,0,0,1,3.19,3.62v0c0,2.34-1.53,3.62-3.19,3.62a2.71,2.71,0,0,1-2.19-1v3h-2Zm5.38,3.52v0a1.72,1.72,0,1,0-3.41,0v0a1.72,1.72,0,1,0,3.41,0Z"/><path class="afba5bdd-e470-4466-bce5-0d715e0630d3" d="M163.63,79h2v1a2.47,2.47,0,0,1,2.06-1.12,2.07,2.07,0,0,1,2,1.11A2.9,2.9,0,0,1,172,78.82c1.47,0,2.36.89,2.36,2.57V86h-2V82.05c0-.94-.41-1.43-1.16-1.43s-1.2.49-1.2,1.43V86h-2V82.05c0-.94-.42-1.43-1.16-1.43s-1.2.49-1.2,1.43V86h-2Z"/><path class="afba5bdd-e470-4466-bce5-0d715e0630d3" d="M175.71,82.49v0a3.49,3.49,0,0,1,3.46-3.65c2.34,0,3.41,1.82,3.41,3.8,0,.16,0,.34,0,.53h-4.88a1.62,1.62,0,0,0,1.71,1.37,2.29,2.29,0,0,0,1.7-.72l1.14,1a3.7,3.7,0,0,1-6.52-2.32Zm4.94-.59a1.5,1.5,0,0,0-1.48-1.49,1.57,1.57,0,0,0-1.52,1.49Z"/><path class="afba5bdd-e470-4466-bce5-0d715e0630d3" d="M184.06,79h2v1a2.45,2.45,0,0,1,2-1.12,2.3,2.3,0,0,1,2.38,2.6V86h-2V82.05c0-.94-.44-1.43-1.2-1.43s-1.24.49-1.24,1.43V86h-2Z"/><path class="afba5bdd-e470-4466-bce5-0d715e0630d3" d="M192.53,84V80.65h-.84V79h.84V77.16h2V79h1.64v1.7h-1.64v3c0,.46.19.68.64.68a2,2,0,0,0,1-.25v1.6a2.94,2.94,0,0,1-1.57.4C193.35,86.07,192.53,85.59,192.53,84Z"/><path class="afba5bdd-e470-4466-bce5-0d715e0630d3" d="M201.13,84.62l1.19-1.42a4.19,4.19,0,0,0,2.73,1.11c.83,0,1.32-.33,1.32-.86v0c0-.51-.31-.77-1.84-1.16-1.85-.47-3-1-3-2.8v0c0-1.66,1.33-2.76,3.2-2.76a5.29,5.29,0,0,1,3.4,1.17l-1,1.51a4.31,4.31,0,0,0-2.38-.9c-.77,0-1.17.36-1.17.8v0c0,.6.39.79,2,1.2,1.86.48,2.9,1.15,2.9,2.74v0c0,1.82-1.38,2.84-3.36,2.84A5.84,5.84,0,0,1,201.13,84.62Z"/><path class="afba5bdd-e470-4466-bce5-0d715e0630d3" d="M209.47,82.49v0a3.49,3.49,0,0,1,3.46-3.65c2.34,0,3.42,1.82,3.42,3.8,0,.16,0,.34,0,.53h-4.88a1.63,1.63,0,0,0,1.72,1.37,2.31,2.31,0,0,0,1.7-.72l1.13,1a3.7,3.7,0,0,1-6.52-2.32Zm4.94-.59a1.5,1.5,0,0,0-1.48-1.49,1.56,1.56,0,0,0-1.51,1.49Z"/><path class="afba5bdd-e470-4466-bce5-0d715e0630d3" d="M217.82,79h2v1.41A2.16,2.16,0,0,1,222,78.82V80.9h-.1c-1.32,0-2.13.79-2.13,2.47V86h-2Z"/><path class="afba5bdd-e470-4466-bce5-0d715e0630d3" d="M222.66,79h2.1l1.57,4.69L227.91,79H230L227.22,86h-1.8Z"/><path class="afba5bdd-e470-4466-bce5-0d715e0630d3" d="M230.8,76.41h2.09v1.77H230.8Zm0,2.54h2v7h-2Z"/><path class="afba5bdd-e470-4466-bce5-0d715e0630d3" d="M234,82.49v0a3.6,3.6,0,0,1,3.67-3.65,3.46,3.46,0,0,1,2.8,1.17l-1.22,1.31a2,2,0,0,0-1.59-.77,1.79,1.79,0,0,0-1.7,1.91v0a1.79,1.79,0,0,0,1.78,1.93,2.23,2.23,0,0,0,1.6-.74l1.17,1.17a3.53,3.53,0,0,1-2.87,1.28A3.57,3.57,0,0,1,234,82.49Z"/><path class="afba5bdd-e470-4466-bce5-0d715e0630d3" d="M241.28,82.49v0a3.5,3.5,0,0,1,3.47-3.65c2.34,0,3.41,1.82,3.41,3.8a5.13,5.13,0,0,1,0,.53h-4.87A1.62,1.62,0,0,0,245,84.52a2.29,2.29,0,0,0,1.7-.72l1.14,1a3.71,3.71,0,0,1-6.53-2.32Zm4.95-.59a1.5,1.5,0,0,0-1.48-1.49,1.57,1.57,0,0,0-1.52,1.49Z"/><path class="afba5bdd-e470-4466-bce5-0d715e0630d3" d="M249.09,85l.85-1.31a4,4,0,0,0,2.21.84c.57,0,.83-.21.83-.53v0c0-.43-.68-.58-1.45-.81-1-.29-2.09-.75-2.09-2.11v0A2.29,2.29,0,0,1,252,78.84a5,5,0,0,1,2.62.81L253.86,81a4.12,4.12,0,0,0-1.9-.66c-.48,0-.73.21-.73.49v0c0,.4.67.58,1.43.84,1,.33,2.11.8,2.11,2.08v0c0,1.55-1.16,2.26-2.68,2.26A4.91,4.91,0,0,1,249.09,85Z"/><polygon class="f5d415fe-f0be-4e3c-a371-471b885fdca5" points="251.66 66.45 254.78 66.45 226.96 0.65 223.84 0.65 251.66 66.45"/><polygon class="a2593ce0-4fd2-4261-8560-71bbc92c2aef" points="246.36 66.45 249.48 66.45 221.66 0.65 218.54 0.65 246.36 66.45"/><polygon class="b7037a75-b468-44e3-9e03-68098e9cbd42" points="241.05 66.45 244.17 66.45 216.35 0.65 213.23 0.65 241.05 66.45"/><polygon class="b3ff66f3-3d77-402a-8262-b7c5f44b817e" points="235.75 66.45 238.87 66.45 211.05 0.65 207.93 0.65 235.75 66.45"/><polygon class="b7d54d86-ae28-4407-b718-d70a99cbbf9c" points="206.84 3.25 212.47 34.96 216.36 25.76 206.84 3.25"/></g></g></svg>