<svg version="1.1" id="Layer_1" xmlns="http://www.w3.org/2000/svg" xmlns:xlink="http://www.w3.org/1999/xlink" x="0px" y="0px"
	 viewBox="0 0 530 158" xml:space="preserve">
<style type="text/css">
	.st4{fill:#0e477e;}
</style>
<g>
	<g>
		<g>
			<path class="st4" d="M76.69,60.48c9.96-0.87,18.65,6.66,19.38,16.75S89.3,96.27,79.34,97.14c-10,0.88-18.69-6.65-19.42-16.75
				S66.69,61.36,76.69,60.48z M78.71,88.52c5.27-0.46,9.27-5.17,8.88-10.55c-0.39-5.38-5.02-9.33-10.28-8.87
				c-5.31,0.46-9.31,5.17-8.92,10.55C68.78,85.03,73.41,88.98,78.71,88.52 M78.1,0.02c42.57-0.94,77.44,33.63,77.78,77.05
				c0.16,21.17-7.84,41.21-22.48,56.47c-14.6,15.19-34,23.81-54.73,24.29C34.84,158.72,0.31,124.31,0,79.45
				c-0.16-20.67,7.93-40.36,22.72-55.39C37.51,9.05,57.18,0.5,78.1,0.02z M77.53,45.21c-9.34,5.84-19.07,11.76-28.76,17.72
				c0.2,10.97,0.29,22.29,0.45,33.65c9.51,5.13,19.24,10.57,28.98,15.97c9.65-5.84,19.26-11.69,28.84-17.57
				c-0.15-4.22-0.18-8.64-0.22-13.06l-0.03-3.64l-0.03-3.68c-0.03-4.42-0.07-8.84-0.14-13.26C97.01,56.01,87.27,50.61,77.53,45.21
				 M8.12,83.53c1.63,22.57,11.58,40.65,29.69,53.69c10.53-6.33,21.02-12.74,31.51-19.14l0.69-0.44
				c-20.59-11.55-41.22-23.1-61.85-34.61L8.12,83.53 M85.96,40.21c20.59,11.59,41.18,23.1,61.81,34.65
				c-1.48-22.85-11.47-41.08-29.66-54.23C107.43,27.07,96.68,33.6,85.96,40.21 M78.32,149.6c9.67-0.22,19.41-2.61,29.17-7.16
				c-0.23-5.11-0.27-10.43-0.31-15.78l-0.05-6.75c-0.04-5.04-0.08-10.08-0.16-15.12c-20.41,12.37-40.77,24.78-61.1,37.23
				C56.52,147.32,67.38,149.85,78.32,149.6 M48.68,31.29l0.05,6.55c0.04,5.08,0.08,10.16,0.16,15.24
				C69.29,40.71,89.7,28.25,110.07,15.8C99.38,10.52,88.53,8,77.59,8.26c-9.61,0.22-19.29,2.58-28.99,7.06
				C48.6,20.67,48.64,25.98,48.68,31.29 M40.35,20.08C21.87,32.72,11.16,50.45,8.54,72.89l0.58,1.03
				c10.66,6.12,21.52,12.11,31.75,17.77c-0.04-10.66-0.13-21.36-0.21-32.06l-0.03-8.22C40.55,40.94,40.47,30.51,40.35,20.08
				 M115.5,137.79c18.37-12.52,29.04-30.06,31.75-52.19c0.03-0.5-0.59-1.69-1.01-1.95c-10.32-5.97-20.94-11.85-31.25-17.55
				c0.05,10.9,0.13,21.83,0.22,32.72l0,5.35l0.01,1.86C115.3,116.63,115.38,127.21,115.5,137.79 M249.7,65.81
				c1.5,3.81,2.22,8.08,2.21,12.71c-0.02,4.62-0.81,8.94-2.34,12.9c-1.53,4-3.68,7.42-6.44,10.34c-2.73,2.91-6,5.21-9.73,6.84
				c-3.77,1.71-7.89,2.53-12.35,2.53h-15.3c-4.39,0-8.46-0.82-12.14-2.53c-3.72-1.63-6.93-3.93-9.64-6.84
				c-2.75-2.91-4.87-6.33-6.37-10.34c-1.54-3.96-2.26-8.28-2.24-12.9c0.02-4.7,0.77-8.98,2.34-12.86c1.53-3.85,3.68-7.15,6.44-9.87
				c2.73-2.72,5.96-4.86,9.69-6.33c3.69-1.52,7.77-2.25,12.16-2.25h15.3c4.54,0,8.69,0.78,12.45,2.29c3.76,1.52,7.01,3.65,9.72,6.41
				C246.12,58.66,248.24,61.96,249.7,65.81z M239.41,87.38c1.02-2.56,1.49-5.36,1.51-8.36c0.01-2.99-0.44-5.75-1.44-8.32
				c-0.96-2.53-2.31-4.7-4.05-6.53c-1.78-1.83-3.83-3.26-6.27-4.27c-2.4-1.01-5.04-1.52-7.91-1.52h-15.3
				c-2.83,0-5.44,0.51-7.85,1.52c-2.41,1.01-4.43,2.45-6.19,4.27c-1.75,1.83-3.08,3.96-4.1,6.49c-0.98,2.53-1.49,5.32-1.51,8.36
				c-0.01,2.99,0.48,5.79,1.44,8.36c1,2.6,2.31,4.78,4.05,6.65c1.74,1.83,3.75,3.3,6.16,4.35c2.4,1.05,5,1.59,7.84,1.59h15.3
				c2.87,0,5.51-0.54,7.93-1.59c2.45-1.05,4.51-2.53,6.31-4.35C237.06,92.16,238.43,89.98,239.41,87.38 M260.91,47.19l-0.23,63.93
				h10.91l0.19-52.74h34.2c3.8,0,6.75,0.97,8.84,2.99c2.09,2.02,3.16,5.13,3.15,9.29c-0.02,4.16-1.04,7.35-3.06,9.56
				c-2.03,2.18-5.02,3.3-9.02,3.3h-26.17l9.13,9.83h14.33l15.85,17.76h15.57l-18.87-19.43c4.08-1.59,7.27-4.2,9.58-7.77
				c2.26-3.61,3.45-8.08,3.47-13.41c0.01-3.58-0.48-6.8-1.52-9.68c-1.04-2.88-2.54-5.32-4.48-7.35c-1.97-2.02-4.33-3.58-7.17-4.66
				c-2.83-1.09-6.01-1.63-9.58-1.63H260.91z M341.12,47.19l-0.23,63.93h10.99l0.23-63.93H341.12z M392.28,47.19
				c-4.39,0-8.43,0.74-12.16,2.25c-3.73,1.48-6.96,3.61-9.69,6.33c-2.77,2.72-4.91,6.02-6.44,9.87c-1.57,3.89-2.32,8.16-2.34,12.86
				c-0.02,4.62,0.7,8.94,2.24,12.9c1.5,4,3.62,7.42,6.37,10.34c2.71,2.91,5.92,5.21,9.64,6.84c3.72,1.71,7.76,2.53,12.14,2.53h37.93
				l0.14-37.19h-39.4l8.35,9.4h19.95l-0.06,16.63h-26.86c-2.83,0-5.43-0.54-7.84-1.59c-2.4-1.05-4.42-2.53-6.16-4.35
				c-1.74-1.87-3.05-4.04-4.05-6.65c-0.96-2.56-1.42-5.36-1.41-8.36c0.01-3.03,0.49-5.83,1.47-8.36c1.02-2.53,2.35-4.66,4.1-6.49
				c1.75-1.83,3.78-3.26,6.19-4.27c2.41-1.01,5.01-1.52,7.85-1.52h34.05l0.04-11.19H392.28z M440.93,47.19l-0.23,63.93h10.95
				l0.23-63.93H440.93z M464.64,48.2c-1.01,1.2-1.52,2.84-1.53,4.9l-0.21,58.02h10.44l0.17-46.79l44.01,45.2
				c1.55,1.59,3.21,2.37,5,2.37c1.59,0,2.91-0.58,3.93-1.75c1.01-1.17,1.52-2.8,1.53-4.94l0.21-58.57h-10.44l-0.17,46.79
				l-44.17-44.73c-0.81-0.85-1.59-1.44-2.32-1.79c-0.78-0.35-1.55-0.51-2.37-0.51C467.02,46.42,465.66,47,464.64,48.2z"/>
		</g>
	</g>
	<g>
		<g>
			<path class="st4" d="M178.55,143.07h-3.21V127.5h3.21V143.07z"/>
			<path class="st4" d="M194.18,143.07h-3.21l-6.24-10.24v10.24h-3.21V127.5h3.21l6.25,10.26V127.5h3.2V143.07z"/>
			<path class="st4" d="M209.64,143.07h-3.21l-6.24-10.24v10.24h-3.21V127.5h3.21l6.25,10.26V127.5h3.2V143.07z"/>
			<path class="st4" d="M225.23,135.64c0,1.53-0.27,2.88-0.81,4.03c-0.54,1.15-1.32,2.05-2.33,2.67c-1.01,0.63-2.16,0.94-3.47,0.94
				c-1.29,0-2.44-0.31-3.45-0.93c-1.01-0.62-1.8-1.51-2.35-2.66c-0.56-1.15-0.84-2.47-0.84-3.97v-0.77c0-1.53,0.28-2.88,0.83-4.05
				c0.55-1.17,1.33-2.06,2.34-2.68c1.01-0.62,2.16-0.94,3.46-0.94c1.3,0,2.45,0.31,3.46,0.94c1.01,0.62,1.79,1.52,2.34,2.68
				c0.55,1.17,0.83,2.51,0.83,4.04V135.64z M221.98,134.93c0-1.63-0.29-2.87-0.88-3.72c-0.58-0.85-1.42-1.27-2.5-1.27
				c-1.08,0-1.91,0.42-2.49,1.26c-0.58,0.84-0.88,2.07-0.89,3.68v0.76c0,1.59,0.29,2.82,0.88,3.7c0.58,0.88,1.42,1.31,2.52,1.31
				c1.08,0,1.9-0.42,2.48-1.27c0.58-0.84,0.87-2.08,0.88-3.69V134.93z"/>
			<path class="st4" d="M233.07,139.21l3.53-11.71h3.57l-5.42,15.56h-3.35l-5.4-15.56h3.56L233.07,139.21z"/>
			<path class="st4" d="M249.62,139.86H244l-1.07,3.21h-3.41l5.79-15.56h2.97l5.83,15.56h-3.41L249.62,139.86z M244.87,137.26h3.89
				l-1.96-5.83L244.87,137.26z"/>
			<path class="st4" d="M266,130.1h-4.77v12.97h-3.21V130.1h-4.7v-2.6H266V130.1z"/>
			<path class="st4" d="M271.24,143.07h-3.21V127.5h3.21V143.07z"/>
			<path class="st4" d="M286.99,135.64c0,1.53-0.27,2.88-0.81,4.03c-0.54,1.15-1.32,2.05-2.33,2.67c-1.01,0.63-2.16,0.94-3.47,0.94
				c-1.29,0-2.44-0.31-3.45-0.93c-1.01-0.62-1.8-1.51-2.35-2.66c-0.56-1.15-0.84-2.47-0.84-3.97v-0.77c0-1.53,0.28-2.88,0.83-4.05
				c0.55-1.17,1.33-2.06,2.34-2.68c1.01-0.62,2.16-0.94,3.46-0.94c1.3,0,2.45,0.31,3.46,0.94c1.01,0.62,1.79,1.52,2.34,2.68
				c0.55,1.17,0.83,2.51,0.83,4.04V135.64z M283.74,134.93c0-1.63-0.29-2.87-0.88-3.72c-0.58-0.85-1.42-1.27-2.5-1.27
				c-1.08,0-1.91,0.42-2.49,1.26c-0.58,0.84-0.88,2.07-0.89,3.68v0.76c0,1.59,0.29,2.82,0.88,3.7c0.58,0.88,1.42,1.31,2.52,1.31
				c1.08,0,1.9-0.42,2.48-1.27c0.58-0.84,0.87-2.08,0.88-3.69V134.93z"/>
			<path class="st4" d="M301.98,143.07h-3.21l-6.24-10.24v10.24h-3.21V127.5h3.21l6.25,10.26V127.5h3.2V143.07z"/>
		</g>
		<g>
			<path class="st4" d="M319.38,139.86h-5.62l-1.07,3.21h-3.41l5.79-15.56h2.97l5.83,15.56h-3.41L319.38,139.86z M314.63,137.26
				h3.89l-1.96-5.83L314.63,137.26z"/>
			<path class="st4" d="M335.76,130.1h-4.77v12.97h-3.21V130.1h-4.7v-2.6h12.68V130.1z"/>
		</g>
		<g>
			<path class="st4" d="M349.62,134.52l3.24-7.01h3.51l-5.11,9.92v5.64h-3.26v-5.64l-5.11-9.92h3.52L349.62,134.52z"/>
			<path class="st4" d="M370.26,135.64c0,1.53-0.27,2.88-0.81,4.03c-0.54,1.15-1.32,2.05-2.33,2.67c-1.01,0.63-2.16,0.94-3.47,0.94
				c-1.29,0-2.44-0.31-3.45-0.93c-1.01-0.62-1.8-1.51-2.35-2.66c-0.56-1.15-0.84-2.47-0.84-3.97v-0.77c0-1.53,0.28-2.88,0.83-4.05
				c0.55-1.17,1.33-2.06,2.34-2.68c1.01-0.62,2.16-0.94,3.46-0.94c1.3,0,2.45,0.31,3.46,0.94c1.01,0.62,1.79,1.52,2.34,2.68
				c0.55,1.17,0.83,2.51,0.83,4.04V135.64z M367.01,134.93c0-1.63-0.29-2.87-0.88-3.72c-0.58-0.85-1.42-1.27-2.5-1.27
				c-1.08,0-1.91,0.42-2.49,1.26c-0.58,0.84-0.88,2.07-0.89,3.68v0.76c0,1.59,0.29,2.82,0.88,3.7c0.58,0.88,1.42,1.31,2.52,1.31
				c1.08,0,1.9-0.42,2.48-1.27c0.58-0.84,0.87-2.08,0.88-3.69V134.93z"/>
			<path class="st4" d="M384.37,127.5v10.25c0,1.7-0.53,3.05-1.6,4.04c-1.07,0.99-2.52,1.49-4.37,1.49c-1.82,0-3.26-0.48-4.33-1.44
				c-1.07-0.96-1.61-2.28-1.64-3.97V127.5h3.21v10.27c0,1.02,0.24,1.76,0.73,2.23c0.49,0.47,1.16,0.7,2.03,0.7
				c1.8,0,2.72-0.95,2.75-2.84V127.5H384.37z"/>
			<path class="st4" d="M392.76,137.37h-2.56v5.7H387V127.5h5.78c1.84,0,3.26,0.41,4.25,1.23c1,0.82,1.5,1.98,1.5,3.47
				c0,1.06-0.23,1.95-0.69,2.66c-0.46,0.71-1.16,1.27-2.09,1.69l3.37,6.36v0.15h-3.44L392.76,137.37z M390.21,134.77h2.59
				c0.8,0,1.43-0.2,1.87-0.61c0.44-0.41,0.66-0.97,0.66-1.69c0-0.73-0.21-1.31-0.62-1.73c-0.42-0.42-1.06-0.63-1.92-0.63h-2.58
				V134.77z"/>
		</g>
		<g>
			<path class="st4" d="M417.64,136.71h-6.16v6.36h-3.21V127.5h10.13v2.6h-6.93v4.02h6.16V136.71z"/>
			<path class="st4" d="M423.68,143.07h-3.21V127.5h3.21V143.07z"/>
			<path class="st4" d="M439.31,143.07h-3.21l-6.24-10.24v10.24h-3.21V127.5h3.21l6.25,10.26V127.5h3.2V143.07z"/>
			<path class="st4" d="M454.42,141.1c-0.58,0.69-1.39,1.23-2.45,1.61c-1.06,0.38-2.22,0.57-3.51,0.57c-1.35,0-2.53-0.29-3.54-0.88
				c-1.02-0.59-1.8-1.44-2.35-2.56c-0.55-1.12-0.84-2.43-0.85-3.94v-1.06c0-1.55,0.26-2.9,0.79-4.04c0.52-1.14,1.28-2.01,2.27-2.61
				c0.99-0.6,2.14-0.9,3.47-0.9c1.85,0,3.29,0.44,4.33,1.32c1.04,0.88,1.66,2.16,1.85,3.84h-3.12c-0.14-0.89-0.46-1.54-0.95-1.96
				c-0.49-0.41-1.16-0.62-2.02-0.62c-1.09,0-1.92,0.41-2.49,1.23s-0.86,2.04-0.87,3.66v0.99c0,1.63,0.31,2.86,0.93,3.7
				c0.62,0.83,1.53,1.25,2.73,1.25c1.21,0,2.06-0.26,2.58-0.77v-2.68h-2.92v-2.36h6.12V141.1z"/>
			<path class="st4" d="M466.38,136.32h-6.16v4.17h7.23v2.58h-10.43V127.5h10.41v2.6h-7.21v3.71h6.16V136.32z"/>
			<path class="st4" d="M475.1,137.37h-2.56v5.7h-3.21V127.5h5.78c1.84,0,3.26,0.41,4.25,1.23c1,0.82,1.5,1.98,1.5,3.47
				c0,1.06-0.23,1.95-0.69,2.66c-0.46,0.71-1.16,1.27-2.09,1.69l3.37,6.36v0.15h-3.44L475.1,137.37z M472.54,134.77h2.59
				c0.8,0,1.43-0.2,1.87-0.61c0.44-0.41,0.66-0.97,0.66-1.69c0-0.73-0.21-1.31-0.62-1.73c-0.42-0.42-1.06-0.63-1.92-0.63h-2.58
				V134.77z"/>
			<path class="st4" d="M494.49,130.1h-4.77v12.97h-3.21V130.1h-4.7v-2.6h12.68V130.1z"/>
			<path class="st4" d="M499.73,143.07h-3.21V127.5h3.21V143.07z"/>
			<path class="st4" d="M505.91,137.58v5.48h-3.21V127.5h6.07c1.17,0,2.2,0.21,3.08,0.64c0.89,0.43,1.57,1.03,2.05,1.82
				c0.48,0.79,0.72,1.68,0.72,2.69c0,1.53-0.52,2.73-1.57,3.61c-1.04,0.88-2.49,1.32-4.34,1.32H505.91z M505.91,134.99h2.86
				c0.85,0,1.49-0.2,1.94-0.6c0.44-0.4,0.67-0.97,0.67-1.71c0-0.76-0.22-1.38-0.67-1.85c-0.45-0.47-1.07-0.71-1.86-0.73h-2.94
				V134.99z"/>
			<path class="st4" d="M524.89,138.98c0-0.61-0.21-1.07-0.64-1.39c-0.43-0.32-1.2-0.67-2.31-1.03c-1.11-0.36-1.99-0.71-2.64-1.06
				c-1.77-0.95-2.65-2.24-2.65-3.86c0-0.84,0.24-1.59,0.71-2.25c0.47-0.66,1.15-1.17,2.04-1.54c0.89-0.37,1.88-0.56,2.99-0.56
				c1.11,0,2.1,0.2,2.97,0.6c0.87,0.4,1.55,0.97,2.03,1.71c0.48,0.73,0.72,1.57,0.72,2.5h-3.21c0-0.71-0.22-1.27-0.67-1.66
				c-0.45-0.4-1.08-0.59-1.89-0.59c-0.78,0-1.39,0.17-1.83,0.5c-0.44,0.33-0.65,0.77-0.65,1.31c0,0.51,0.26,0.93,0.76,1.27
				c0.51,0.34,1.26,0.66,2.25,0.96c1.82,0.55,3.15,1.23,3.99,2.04c0.83,0.81,1.25,1.82,1.25,3.04c0,1.35-0.51,2.4-1.53,3.17
				c-1.02,0.77-2.39,1.15-4.12,1.15c-1.2,0-2.29-0.22-3.27-0.66c-0.98-0.44-1.73-1.04-2.25-1.8c-0.52-0.76-0.78-1.65-0.78-2.65h3.22
				c0,1.72,1.03,2.58,3.08,2.58c0.76,0,1.36-0.15,1.79-0.47C524.68,139.97,524.89,139.54,524.89,138.98z"/>
		</g>
	</g>
</g>
</svg>
